<?xml version="1.0" standalone="no"?><!DOCTYPE svg PUBLIC "-//W3C//DTD SVG 1.1//EN" "http://www.w3.org/Graphics/SVG/1.1/DTD/svg11.dtd"><svg t="1586190459427" class="icon" viewBox="0 0 1024 1024" version="1.1" xmlns="http://www.w3.org/2000/svg" p-id="11762" xmlns:xlink="http://www.w3.org/1999/xlink" width="64" height="64"><defs><style type="text/css"></style></defs><path d="M725.9136 38.5792L729.6 38.4a38.4 38.4 0 0 1 38.2208 34.7136L768 76.8v38.4h76.8a140.8 140.8 0 0 1 140.8 140.8v588.8a140.8 140.8 0 0 1-135.1424 140.6976L844.8 985.6H179.2A140.8 140.8 0 0 1 38.4 844.8V256A140.8 140.8 0 0 1 179.2 115.2h76.8V76.8a38.4 38.4 0 0 1 34.7136-38.2208L294.4 38.4a38.4 38.4 0 0 1 38.2208 34.7136L332.8 76.8v38.4h358.4V76.8a38.4 38.4 0 0 1 34.7136-38.2208L729.6 38.4zM908.8 422.4h-793.6V844.8A64 64 0 0 0 179.2 908.8h665.6a64 64 0 0 0 64-64V422.4zM256 192H179.2A64 64 0 0 0 115.2 256v89.6h793.6V256A64 64 0 0 0 844.8 192h-76.8V230.4a38.4 38.4 0 0 1-34.7136 38.2208l-3.6864 0.1792a38.4 38.4 0 0 1-38.2208-34.7136L691.2 230.4V192H332.8V230.4a38.4 38.4 0 0 1-34.7136 38.2208l-3.6864 0.1792a38.4 38.4 0 0 1-38.2208-34.7136L256 230.4V192z" fill="#2A303C" p-id="11763"></path><path d="M818.048 490.1632v272.768a102.4 102.4 0 0 1-102.4 102.4h-407.296a102.4 102.4 0 0 1-102.4-102.4V490.1632h612.096z m-167.3472 47.104l-174.208 174.208-59.136-59.136a38.4 38.4 0 0 0-54.3232 54.2976l86.2976 86.2976a38.4 38.4 0 0 0 54.3232 0l201.344-201.344a38.4 38.4 0 0 0-54.2976-54.2976z" fill="#FCCF00" p-id="11764"></path></svg>