<?xml version="1.0" standalone="no"?><!DOCTYPE svg PUBLIC "-//W3C//DTD SVG 1.1//EN" "http://www.w3.org/Graphics/SVG/1.1/DTD/svg11.dtd"><svg t="1589985560144" class="icon" viewBox="0 0 1024 1024" version="1.1" xmlns="http://www.w3.org/2000/svg" p-id="7027" xmlns:xlink="http://www.w3.org/1999/xlink" width="64" height="64"><defs><style type="text/css"></style></defs><path d="M252.672 724.7104c3.3792 12.1856 9.3184 32.0256 13.184 44.0832l55.5264 172.8256c3.8656 12.0576 17.3824 21.9136 30.0544 21.9136h65.1776c12.6464 0 21.76-10.2656 20.224-22.8352l-28.9536-238.0544a26.7008 26.7008 0 0 0-25.7792-22.8352h-118.8608c-12.6464 0-20.2496 9.984-16.8704 22.1696l6.2976 22.7328z" fill="#E06D5A" p-id="7028"></path><path d="M258.816 746.88h238.9248c142.9504 0 258.816-115.8656 258.816-258.816H0c0 142.9504 115.8912 258.816 258.816 258.816z" fill="#EA7760" p-id="7029"></path><path d="M497.7408 229.248H258.816C115.8912 229.248 0 345.1136 0 488.064h756.5568c0-142.9504-115.8912-258.816-258.816-258.816z" fill="#F98D73" p-id="7030"></path><path d="M955.4176 434.3808h-153.2928a68.5056 68.5056 0 0 0-66.8416 53.6832h287.0016a68.5568 68.5568 0 0 0-66.8672-53.6832z" fill="#F98D73" p-id="7031"></path><path d="M735.2832 488.064a68.1472 68.1472 0 0 0-1.7152 14.8992 68.608 68.608 0 0 0 68.5824 68.5824h153.2928a68.608 68.608 0 0 0 68.5824-68.5824c0-5.1456-0.6656-10.0864-1.7408-14.8992H735.2832z" fill="#EA7760" p-id="7032"></path><path d="M914.3808 114.2272c0-38.1184-29.1328-61.056-63.6672-51.6352L530.7648 149.9904c-20.9664 5.7344-37.4528 33.1008-37.4528 61.312v276.736h421.0688V114.2272z" fill="#DF4C22" p-id="7033"></path><path d="M493.312 488.064v276.736c0 28.2112 16.4864 55.6032 37.4528 61.312l319.9744 87.3984c34.5344 9.4208 63.6672-13.5168 63.6672-51.6352V488.064H493.312z" fill="#D13E1C" p-id="7034"></path></svg>