<?xml version="1.0" standalone="no"?><!DOCTYPE svg PUBLIC "-//W3C//DTD SVG 1.1//EN" "http://www.w3.org/Graphics/SVG/1.1/DTD/svg11.dtd"><svg t="1589447379260" class="icon" viewBox="0 0 1024 1024" version="1.1" xmlns="http://www.w3.org/2000/svg" p-id="14571" xmlns:xlink="http://www.w3.org/1999/xlink" width="64" height="64"><defs><style type="text/css"></style></defs><path d="M188.50816 462.8224s375.1936 216.9344 707.80928-133.90848c-13.312 74.98752-39.936 307.98848-308.66944 377.62048-63.872 8.0384-295.36256 37.49888-399.13984-243.712z" fill="#F4CA1C" p-id="14572"></path><path d="M828.04736 629.17632c51.9424-66.64704 105.472-156.7488 83.10784-383.42656-1.19808-30.16192-6.8608-71.9872-40.2176-93.0048-36.46464-22.9888-84.07552-7.25504-125.83424 11.15648a1323.55072 1323.55072 0 0 1-74.96192 30.41792 7.94624 7.94624 0 0 1-9.05728-2.62144L576.20992 82.944a82.36544 82.36544 0 0 0-128.38912-1.98144L356.23424 191.15008a8.06912 8.06912 0 0 1-8.92416 2.42176L243.46624 155.7504c-11.91424-5.8624-52.61312-22.99392-89.69728-4.44928-17.85856 8.94464-40.55552 29.184-47.26272 74.84416l-0.14336 1.09056c-1.16224 9.9072-27.2128 244.31104 79.63136 380.60032l0.512 0.6144c81.22368 103.82336 177.7408 160.10752 287.232 167.8592v164.19328a37.26336 37.26336 0 1 0 74.5216 0v-165.376c158.42816-13.71648 235.13088-88.6528 279.78752-145.95072zM245.07904 562.2272l-0.512-0.65536c-85.61664-109.2096-65.4848-313.46176-64.25088-325.12 2.048-13.27104 5.78048-17.70496 6.6816-18.17088 3.68128-1.90464 15.83104 0.55808 23.76704 4.70528l2.47808 1.3568 108.65152 39.5776A82.60608 82.60608 0 0 0 413.44512 239.104l91.58656-110.20288a7.30112 7.30112 0 0 1 6.30784-2.90304 7.79264 7.79264 0 0 1 6.21056 3.072l84.87424 108.76416a82.08384 82.08384 0 0 0 93.50144 26.6752 1397.49888 1397.49888 0 0 0 79.1296-32.11264c38.57408-17.00352 52.57216-16.6912 55.98208-16.17408 1.32608 2.31936 4.85888 10.5472 5.68832 33.42848l0.16384 2.36544c19.91168 199.95136-22.44096 273.16736-67.52768 331.01824-42.32704 54.30272-110.592 116.95104-264.28928 119.3984-1.61792 0-3.21536 0.04096-4.82304 0.04096-145.4336 0.0256-227.8656-105.36448-255.17056-140.24704z m-114.176 194.432a37.41696 37.41696 0 0 0-3.072 74.752c170.27584 7.05024 234.14784 89.00096 237.21984 93.0816a37.31456 37.31456 0 0 0 60.288-43.98592c-3.35872-4.6848-84.92032-115.1744-294.4256-123.84768z m762.15808 0c-209.50528 8.67328-291.06176 119.16288-294.43072 123.86304a37.67808 37.67808 0 0 0 8.35072 52.3776 37.02272 37.02272 0 0 0 51.90144-8.3456c2.62656-3.51232 66.33984-86.05184 237.25056-93.12768a37.41696 37.41696 0 0 0-3.06176-74.76736z" fill="#595BB3" p-id="14573"></path></svg>