<?xml version="1.0" standalone="no"?><!DOCTYPE svg PUBLIC "-//W3C//DTD SVG 1.1//EN" "http://www.w3.org/Graphics/SVG/1.1/DTD/svg11.dtd"><svg t="1589270384803" class="icon" viewBox="0 0 1024 1024" version="1.1" xmlns="http://www.w3.org/2000/svg" p-id="1502" xmlns:xlink="http://www.w3.org/1999/xlink" width="64" height="64"><defs><style type="text/css"></style></defs><path d="M1001.516 512.758c0 276.562-224.196 500.758-500.76 500.758S0 789.32 0 512.756 224.196 12 500.758 12s500.758 224.196 500.758 500.758z m0 0" fill="#2ED0E1" p-id="1503"></path><path d="M713.328 704.882c0 11.29-9.156 20.446-20.446 20.446-11.28 0-20.436-9.156-20.436-20.446 0-11.28 9.156-20.436 20.436-20.436 11.29 0 20.446 9.156 20.446 20.436z m40.876-20.436c-11.29 0-20.44 9.156-20.44 20.436 0 11.29 9.15 20.446 20.44 20.446 11.288 0 20.436-9.156 20.436-20.446 0-11.28-9.148-20.436-20.436-20.436z m61.32 0c-11.29 0-20.446 9.156-20.446 20.436 0 11.29 9.156 20.446 20.446 20.446s20.436-9.156 20.436-20.446c0-11.28-9.148-20.436-20.436-20.436zM258.46 354.258l-120.906-66.134c-6.672-3.64-14.804 1.18-14.804 8.782v132.258c0 7.594 8.132 12.414 14.804 8.774l120.906-66.134c6.94-3.788 6.94-13.758 0-17.546z m0 0" fill="#FFF5F5" p-id="1504"></path><path d="M993.344 541.376H355.64c-16.93 0-30.656-13.728-30.656-30.666V101.93c0-16.93 13.726-30.656 30.656-30.656h637.704c16.93 0 30.656 13.726 30.656 30.656v408.78c0 16.94-13.726 30.666-30.656 30.666z m0 0" fill="#FC6930" p-id="1505"></path><path d="M1024 101.93v408.78c0 16.94-13.726 30.666-30.656 30.666h-136.328l-118.696 89.694c-13.46 10.18-32.758 0.57-32.758-16.304v-73.39H420.766c-16.93 0-30.656-13.728-30.656-30.666V101.93c0-16.93 13.726-30.656 30.656-30.656h572.578c16.93 0 30.656 13.726 30.656 30.656z m0 0" fill="#FD7D43" p-id="1506"></path><path d="M803.258 245.008v-20.438a10.224 10.224 0 0 1 10.22-10.226h134.896c5.64 0 10.22 4.578 10.22 10.226v20.438c0 5.64-4.58 10.22-10.22 10.22h-134.898c-5.64 0-10.22-4.58-10.22-10.22z m163.516 51.094h-153.298c-5.64 0-10.22 4.578-10.22 10.22v20.444c0 5.64 4.58 10.22 10.22 10.22h153.298c5.64 0 10.22-4.58 10.22-10.22V306.32c0-5.64-4.58-10.22-10.22-10.22z m-28.618 81.758h-124.68c-5.64 0-10.22 4.578-10.22 10.22v20.436a10.224 10.224 0 0 0 10.22 10.226h124.68c5.64 0 10.22-4.578 10.22-10.226v-20.438c0-5.64-4.58-10.22-10.22-10.22z m0 0" fill="#FDC273" p-id="1507"></path><path d="M525.336 289.016l-150.188-65.298c-8.188-3.56-8.188-15.18 0-18.74l150.188-65.3a40.858 40.858 0 0 1 32.6 0l150.18 65.3c8.196 3.56 8.196 15.18 0 18.74l-150.18 65.298a40.858 40.858 0 0 1-32.6 0z m114.64 7.898l-75.202 30.64a61.286 61.286 0 0 1-46.274 0l-75.204-30.64c-6.726-2.734-14.078 2.204-14.078 9.46v122.586c0 5.64 4.58 10.22 10.22 10.22h204.39c5.648 0 10.22-4.58 10.22-10.22v-122.584c0.006-7.26-7.352-12.196-14.072-9.462z m73.352 63.43v-89.468c0-7.024-7.032-11.876-13.594-9.384a10.03 10.03 0 0 0-6.476 9.352l-0.258 89.43c-11.968 6.96-20.554 25.93-20.554 48.24h61.32c0-22.24-8.532-41.154-20.438-48.17z m0 0" fill="#FDE0B8" p-id="1508"></path><path d="M584.562 847.96H89.93c-16.93 0-30.656-13.726-30.656-30.656V510.71c0-16.928 13.726-30.656 30.656-30.656H584.56c16.93 0 30.656 13.728 30.656 30.656v306.594c0 16.93-13.726 30.656-30.656 30.656z m0 0" fill="#015AAD" p-id="1509"></path><path d="M615.22 510.71v306.594c0 16.93-13.728 30.656-30.658 30.656h-96.07v73.392c0 16.874-19.296 26.484-32.758 16.304L337.04 847.96H151.25c-16.93 0-30.656-13.726-30.656-30.656V510.71c0-16.928 13.726-30.656 30.656-30.656h433.312c16.93 0 30.656 13.728 30.656 30.656z m0 0" fill="#0573CD" p-id="1510"></path><path d="M500.758 653.79v20.436c0 5.64-4.58 10.22-10.22 10.22H212.572a10.224 10.224 0 0 1-10.226-10.22v-20.436c0-5.64 4.578-10.22 10.226-10.22H490.54c5.64 0 10.218 4.58 10.218 10.22z m-132.852 71.54h-155.336a10.22 10.22 0 0 0-10.226 10.216v20.44c0 5.64 4.578 10.218 10.226 10.218h155.336c5.64 0 10.22-4.58 10.22-10.22v-20.438c0-5.648-4.58-10.218-10.22-10.218z m0 0" fill="#2ABBC7" p-id="1511"></path><path d="M500.758 572.032v20.436c0 5.65-4.58 10.22-10.22 10.22H212.572a10.22 10.22 0 0 1-10.226-10.22v-20.436c0-5.64 4.578-10.22 10.226-10.22H490.54c5.64 0 10.218 4.58 10.218 10.22z m-104.242 71.54h-183.946a10.224 10.224 0 0 0-10.226 10.218v20.436c0 5.64 4.578 10.22 10.226 10.22h183.946a10.224 10.224 0 0 0 10.226-10.22v-20.436c0-5.64-4.578-10.22-10.226-10.22z m0 0" fill="#5AFFB7" p-id="1512"></path><path d="M447.618 664.008c0 22.578-18.306 40.874-40.876 40.874-22.578 0-40.882-18.296-40.882-40.874 0-22.58 18.304-40.876 40.882-40.876 22.57 0 40.876 18.298 40.876 40.876z m0 0" fill="#D3F1F5" p-id="1513"></path></svg>