<?xml version="1.0" standalone="no"?><!DOCTYPE svg PUBLIC "-//W3C//DTD SVG 1.1//EN" "http://www.w3.org/Graphics/SVG/1.1/DTD/svg11.dtd"><svg t="1589270490616" class="icon" viewBox="0 0 1024 1024" version="1.1" xmlns="http://www.w3.org/2000/svg" p-id="1797" xmlns:xlink="http://www.w3.org/1999/xlink" width="64" height="64"><defs><style type="text/css"></style></defs><path d="M425.813333 875.52l-171.52 124.586667v-124.586667h-93.866666c-28.16 0-51.2-23.04-51.2-51.2V387.413333c0-28.16 23.04-51.2 51.2-51.2h702.293333c28.16 0 51.2 23.04 51.2 51.2v436.906667c0 28.16-23.04 51.2-51.2 51.2H425.813333z" fill="#ECF1F2" p-id="1798"></path><path d="M254.293333 1008.64c-1.706667 0-2.56 0-4.266666-0.853333-2.56-1.706667-4.266667-4.266667-4.266667-7.68v-116.053334h-85.333333c-33.28 0-59.733333-26.453333-59.733334-59.733333V387.413333c0-16.213333 5.973333-30.72 17.92-41.813333 11.093333-11.093333 26.453333-17.92 41.813334-17.92h702.293333c33.28 0 59.733333 26.453333 59.733333 59.733333v436.906667c0 16.213333-5.973333 30.72-17.92 41.813333-11.093333 11.093333-26.453333 17.92-41.813333 17.92H428.373333L259.413333 1006.933333c-1.706667 0.853333-3.413333 1.706667-5.12 1.706667z m-93.866666-663.893333c-11.093333 0-22.186667 4.266667-29.866667 12.8-7.68 7.68-12.8 18.773333-12.8 29.866666v436.906667c0 23.893333 18.773333 42.666667 42.666667 42.666667h93.866666c5.12 0 8.533333 3.413333 8.533334 8.533333v107.52l157.866666-114.346667c1.706667-0.853333 3.413333-1.706667 5.12-1.706666h436.906667c11.093333 0 22.186667-4.266667 29.866667-12.8 7.68-7.68 12.8-18.773333 12.8-29.866667V387.413333c0-23.893333-18.773333-42.666667-42.666667-42.666666H160.426667z" p-id="1799"></path><path d="M729.6 344.746667c0.853333 6.826667 0.853333 13.653333 0.853333 21.333333 0 140.8-108.373333 152.746667-124.586666 280.746667 16.213333 5.973333 26.453333 22.186667 23.893333 40.96l-7.68 66.56c-2.56 23.893333-25.6 44.373333-49.493333 44.373333H453.973333c-24.746667 0-46.933333-19.626667-49.493333-44.373333l-7.68-66.56c-2.56-17.92 6.826667-34.133333 22.186667-40.96-16.213333-128-124.586667-139.946667-124.586667-280.746667 0-6.826667 0.853333-13.653333 0.853333-21.333333h-59.733333c-0.853333 6.826667-0.853333 13.653333-0.853333 21.333333 0 96.426667 41.813333 148.48 75.093333 190.293333 18.773333 23.893333 34.986667 43.52 43.52 70.826667-12.8 19.626667-19.626667 43.52-16.213333 68.266667l7.68 66.56c6.826667 54.613333 54.613333 96.426667 109.226666 96.426666h118.613334c54.613333 0 102.4-42.666667 109.226666-96.426666l7.68-66.56c3.413333-25.6-3.413333-50.346667-17.066666-69.973334 8.533333-26.453333 24.746667-46.08 42.666666-69.12 33.28-41.813333 75.093333-93.866667 75.093334-190.293333 0-6.826667 0-13.653333-0.853334-21.333333h-59.733333z" fill="#C7CAC7" p-id="1800"></path><path d="M604.16 679.253333c0-160.426667 126.293333-161.28 126.293333-314.026666 0-120.32-97.28-218.453333-218.453333-218.453334S293.546667 244.906667 293.546667 365.226667c0 152.746667 126.293333 153.6 126.293333 314.026666h184.32z" fill="#EFCF48" p-id="1801"></path><path d="M604.16 687.786667H419.84c-5.12 0-8.533333-3.413333-8.533333-8.533334 0-78.506667-30.72-116.053333-62.293334-156.16-31.573333-39.253333-64-79.36-64-157.866666 0-124.586667 101.546667-226.986667 226.986667-226.986667s226.986667 101.546667 226.986667 226.986667c0 78.506667-32.426667 118.613333-64 157.866666-32.426667 40.106667-62.293333 77.653333-62.293334 156.16 0 5.12-4.266667 8.533333-8.533333 8.533334z m-175.786667-17.066667h166.4c2.56-78.506667 34.986667-118.613333 66.56-157.866667 30.72-38.4 59.733333-75.093333 59.733334-147.626666 0-115.2-93.866667-209.92-209.92-209.92s-209.92 93.866667-209.92 209.92c0 72.533333 29.013333 108.373333 60.586666 147.626666 32.426667 39.253333 64.853333 79.36 66.56 157.866667z" p-id="1802"></path><path d="M622.08 754.346667c-2.56 23.893333-25.6 44.373333-49.493333 44.373333H453.973333c-24.746667 0-46.933333-19.626667-49.493333-44.373333l-7.68-66.56c-2.56-23.893333 14.506667-44.373333 39.253333-44.373334h156.16c24.746667 0 41.813333 19.626667 39.253334 44.373334l-9.386667 66.56z" fill="#FFFFFF" p-id="1803"></path><path d="M509.44 64.853333c-5.12 0-8.533333-3.413333-8.533333-8.533333V23.893333c0-5.12 3.413333-8.533333 8.533333-8.533333s8.533333 3.413333 8.533333 8.533333v32.426667c0 5.12-3.413333 8.533333-8.533333 8.533333zM349.013333 107.52c-2.56 0-5.973333-1.706667-7.68-4.266667l-16.213333-28.16c-2.56-4.266667-0.853333-9.386667 3.413333-11.946666 4.266667-2.56 9.386667-0.853333 11.946667 3.413333l16.213333 28.16c2.56 4.266667 0.853333 9.386667-3.413333 11.946667-0.853333 0.853333-2.56 0.853333-4.266667 0.853333zM232.106667 225.28c-1.706667 0-2.56 0-4.266667-0.853333l-28.16-16.213334c-4.266667-2.56-5.12-7.68-3.413333-11.946666s7.68-5.12 11.946666-3.413334l28.16 16.213334c4.266667 2.56 5.12 7.68 3.413334 11.946666-2.56 2.56-5.12 4.266667-7.68 4.266667zM787.626667 225.28c-2.56 0-5.973333-1.706667-7.68-4.266667-2.56-4.266667-0.853333-9.386667 3.413333-11.946666l28.16-16.213334c4.266667-2.56 9.386667-0.853333 11.946667 3.413334 2.56 4.266667 0.853333 9.386667-3.413334 11.946666l-28.16 16.213334c-1.706667 0.853333-3.413333 0.853333-4.266666 0.853333zM669.866667 107.52c-1.706667 0-2.56 0-4.266667-0.853333-4.266667-2.56-5.12-7.68-3.413333-11.946667l16.213333-28.16c2.56-4.266667 7.68-5.12 11.946667-3.413333s5.12 7.68 3.413333 11.946666l-16.213333 28.16c-1.706667 3.413333-4.266667 4.266667-7.68 4.266667zM371.2 431.786667c-3.413333 0-6.826667-1.706667-7.68-5.12-19.626667-47.786667-16.213333-100.693333 10.24-145.066667 30.72-52.906667 87.893333-84.48 149.333333-82.773333 5.12 0 8.533333 4.266667 8.533334 8.533333s-4.266667 8.533333-8.533334 8.533333c-55.466667-2.56-107.52 26.453333-134.826666 74.24-23.04 40.106667-26.453333 87.04-8.533334 129.706667 1.706667 4.266667 0 9.386667-4.266666 11.093333-1.706667 0.853333-2.56 0.853333-4.266667 0.853334zM512 457.386667c-2.56 0-4.266667-0.853333-5.973333-2.56l-60.586667-60.586667c-3.413333-3.413333-3.413333-8.533333 0-11.946667s8.533333-3.413333 11.946667 0l54.613333 54.613334 54.613333-54.613334c3.413333-3.413333 8.533333-3.413333 11.946667 0s3.413333 8.533333 0 11.946667l-60.586667 60.586667c-1.706667 1.706667-3.413333 2.56-5.973333 2.56z" p-id="1804"></path><path d="M512 651.946667c-5.12 0-8.533333-3.413333-8.533333-8.533334V448.853333c0-5.12 3.413333-8.533333 8.533333-8.533333s8.533333 3.413333 8.533333 8.533333v194.56c0 4.266667-3.413333 8.533333-8.533333 8.533334z" p-id="1805"></path><path d="M627.2 650.24c-9.386667-10.24-22.186667-16.213333-35.84-16.213333H435.2c-14.506667 0-27.306667 5.973333-35.84 16.213333-9.386667 10.24-12.8 23.893333-11.093333 37.546667l7.68 66.56c3.413333 28.16 29.866667 52.053333 58.026666 52.053333H571.733333c29.013333 0 54.613333-23.04 58.026667-52.053333l7.68-66.56c2.56-13.653333-1.706667-27.306667-10.24-37.546667z m-215.893333 11.093333c5.973333-6.826667 14.506667-10.24 23.04-10.24h156.16c9.386667 0 17.92 3.413333 23.04 10.24 5.12 5.973333 7.68 14.506667 6.826666 23.04H404.48c-0.853333-8.533333 1.706667-16.213333 6.826667-23.04z m203.946666 73.386667h-204.8l-4.266666-33.28h213.333333l-4.266667 33.28zM571.733333 789.333333H453.973333c-19.626667 0-39.253333-17.066667-40.96-36.693333V750.933333H614.4v1.706667c-3.413333 20.48-22.186667 36.693333-42.666667 36.693333z" p-id="1806"></path></svg>