<?xml version="1.0" standalone="no"?><!DOCTYPE svg PUBLIC "-//W3C//DTD SVG 1.1//EN" "http://www.w3.org/Graphics/SVG/1.1/DTD/svg11.dtd"><svg t="1589270527374" class="icon" viewBox="0 0 1024 1024" version="1.1" xmlns="http://www.w3.org/2000/svg" p-id="1949" xmlns:xlink="http://www.w3.org/1999/xlink" width="64" height="64"><defs><style type="text/css"></style></defs><path d="M758.2 920.4h-587c-36 0-65.2-29.3-65.2-65.2V170.4c0-36 29.2-65.2 65.2-65.2h586.9c36 0 65.2 29.3 65.2 65.2v146.7c0 18-14.6 32.6-32.6 32.6s-32.6-14.6-32.6-32.6V170.4H171.2v684.8h586.9c18 0 32.6 14.6 32.6 32.6 0.1 18-14.5 32.6-32.5 32.6z" fill="#333333" p-id="1950"></path><path d="M464.7 341.6H269.1c-13.5 0-24.5-10.9-24.5-24.5 0-13.5 11-24.5 24.5-24.5h195.6c13.5 0 24.5 10.9 24.5 24.5 0 13.5-11 24.5-24.5 24.5zM366.9 504.6h-97.8c-13.5 0-24.5-10.9-24.5-24.5s11-24.5 24.5-24.5h97.8c13.5 0 24.5 10.9 24.5 24.5s-11 24.5-24.5 24.5z" fill="#FFAF00" p-id="1951"></path><path d="M350.6 667.7h-81.5c-13.5 0-24.5-10.9-24.5-24.5 0-13.5 11-24.5 24.5-24.5h81.5c13.5 0 24.5 10.9 24.5 24.5-0.1 13.5-11 24.5-24.5 24.5zM660.4 827.1c-61.4 0-119.2-23.9-162.6-67.4-89.7-89.7-89.7-235.5 0-325.2 43.4-43.4 101.2-67.4 162.6-67.4S779.6 391 823 434.5c89.7 89.6 89.7 235.5 0 325.2-43.4 43.5-101.2 67.4-162.6 67.4z m0-394.7c-44 0-85.4 17.1-116.5 48.2-64.2 64.2-64.2 168.7 0 233 31.1 31.1 72.5 48.2 116.5 48.2s85.4-17.1 116.5-48.2c64.2-64.2 64.2-168.7 0-233-31.1-31.1-72.5-48.2-116.5-48.2z" fill="#333333" p-id="1952"></path><path d="M885.8 855.2c-8.3 0-16.7-3.2-23.1-9.6l-85.9-85.9c-12.7-12.7-12.7-33.4 0-46.1 12.7-12.7 33.4-12.7 46.1 0l85.9 85.9c12.7 12.7 12.7 33.4 0 46.1-6.3 6.4-14.7 9.6-23 9.6z" fill="#333333" p-id="1953"></path><path d="M758.2 618.8c-13.5 0-24.5-10.9-24.5-24.5 0-40.5-32.9-73.4-73.4-73.4-13.5 0-24.5-10.9-24.5-24.5 0-13.5 11-24.5 24.5-24.5 67.4 0 122.3 54.8 122.3 122.3 0 13.6-10.9 24.6-24.4 24.6z" fill="#FFAF00" p-id="1954"></path></svg>