<?xml version="1.0" standalone="no"?><!DOCTYPE svg PUBLIC "-//W3C//DTD SVG 1.1//EN" "http://www.w3.org/Graphics/SVG/1.1/DTD/svg11.dtd"><svg t="1589270605399" class="icon" viewBox="0 0 1024 1024" version="1.1" xmlns="http://www.w3.org/2000/svg" p-id="2888" xmlns:xlink="http://www.w3.org/1999/xlink" width="64" height="64"><defs><style type="text/css"></style></defs><path d="M532.945455 16.290909C309.527273 16.290909 139.636364 179.2 139.636364 425.890909v6.981818l-65.163637 141.963637c-2.327273 6.981818-2.327273 16.290909 0 20.945454 2.327273 6.981818 6.981818 13.963636 13.963637 16.290909l104.727272 48.872728v186.181818c0 16.290909 9.309091 25.6 25.6 25.6H349.090909v107.054545c0 16.290909 9.309091 25.6 25.6 25.6h365.381818c16.290909 0 25.6-9.309091 25.6-27.927273v-181.527272c114.036364-81.454545 183.854545-221.090909 183.854546-372.363637C951.854545 179.2 754.036364 16.290909 532.945455 16.290909z" fill="#95C4FC" p-id="2889"></path><path d="M742.4 1024H374.690909c-25.6 0-44.218182-18.618182-44.218182-44.218182v-90.763636H218.763636c-25.6 0-44.218182-18.618182-44.218181-44.218182v-174.545455l-95.418182-44.218181c-9.309091-4.654545-18.618182-13.963636-20.945455-25.6-4.654545-9.309091-4.654545-20.945455 0-32.581819v-2.327272l62.836364-137.309091v-4.654546c0-62.836364 11.636364-121.018182 30.254545-174.545454 23.272727-48.872727 51.2-93.090909 88.436364-132.654546 74.472727-74.472727 176.872727-116.363636 290.909091-116.363636 58.181818 0 114.036364 9.309091 165.236363 30.254545 51.2 20.945455 100.072727 48.872727 139.636364 86.109091 41.890909 37.236364 74.472727 83.781818 95.418182 134.981819 23.272727 53.527273 34.909091 111.709091 34.909091 174.545454 0 76.8-16.290909 151.272727-51.2 218.763636-32.581818 65.163636-76.8 121.018182-132.654546 160.581819V977.454545c0 13.963636-4.654545 25.6-11.636363 32.581819-4.654545 9.309091-16.290909 13.963636-27.927273 13.963636zM95.418182 595.781818l104.727273 48.872727c6.981818 2.327273 9.309091 9.309091 9.30909 16.29091v186.181818c0 6.981818 2.327273 9.309091 9.309091 9.309091H349.090909c9.309091 0 16.290909 6.981818 16.290909 16.290909v107.054545c0 6.981818 2.327273 9.309091 9.309091 9.309091h365.381818c2.327273 0 9.309091 0 9.309091-11.636364v-181.527272c0-4.654545 2.327273-11.636364 6.981818-13.963637 53.527273-37.236364 97.745455-90.763636 128-153.6 30.254545-62.836364 46.545455-132.654545 46.545455-202.472727 0-58.181818-11.636364-111.709091-32.581818-160.581818-20.945455-46.545455-48.872727-88.436364-88.436364-123.345455-37.236364-34.909091-79.127273-60.509091-128-79.127272-48.872727-18.618182-100.072727-27.927273-153.6-27.927273s-102.4 9.309091-148.945454 27.927273c-44.218182 18.618182-86.109091 44.218182-118.69091 79.127272C230.4 176.872727 204.8 216.436364 186.181818 265.309091c-18.618182 48.872727-27.927273 102.4-27.927273 160.581818v6.981818c0 2.327273 0 4.654545-2.327272 6.981818l-65.163637 139.636364v9.309091c2.327273 4.654545 4.654545 6.981818 4.654546 6.981818z" fill="#709EF9" p-id="2890"></path><path d="M714.472727 302.545455h-37.236363c-2.327273-4.654545-4.654545-9.309091-4.654546-16.29091l25.6-25.6c9.309091-9.309091 9.309091-25.6 0-37.236363L663.272727 186.181818c-9.309091-9.309091-25.6-9.309091-37.236363 0l-25.6 25.6c-4.654545-2.327273-9.309091-4.654545-16.290909-4.654545V172.218182c0-16.290909-9.309091-25.6-25.6-25.6h-51.2c-16.290909 0-25.6 9.309091-25.6 25.6V209.454545c-6.981818 0-11.636364 4.654545-16.29091 4.654546L437.527273 186.181818c-9.309091-9.309091-25.6-9.309091-37.236364 0l-37.236364 37.236364c-9.309091 9.309091-9.309091 25.6 0 37.236363l25.6 25.6c-2.327273 4.654545-4.654545 9.309091-4.654545 16.29091H349.090909c-16.290909 0-25.6 9.309091-25.6 25.6v51.2c0 16.290909 9.309091 25.6 25.6 25.6h37.236364c2.327273 4.654545 4.654545 9.309091 4.654545 16.290909l-25.6 25.6c-9.309091 9.309091-9.309091 25.6 0 37.236363l37.236364 37.236364c9.309091 9.309091 25.6 9.309091 37.236363 0l25.6-25.6c4.654545 2.327273 9.309091 4.654545 16.29091 4.654545v37.236364c0 16.290909 9.309091 25.6 25.6 25.6H558.545455c16.290909 0 25.6-9.309091 25.6-25.6v-37.236364c4.654545-2.327273 9.309091-4.654545 16.290909-4.654545l25.6 25.6c9.309091 9.309091 25.6 9.309091 37.236363 0l37.236364-37.236364c9.309091-9.309091 9.309091-25.6 0-37.236363L674.909091 421.236364c2.327273-4.654545 4.654545-9.309091 4.654545-16.290909h37.236364c16.290909 0 25.6-9.309091 25.6-25.6v-51.2c0-16.290909-11.636364-25.6-27.927273-25.6z m-181.527272 155.927272c-58.181818 0-104.727273-46.545455-104.727273-104.727272s46.545455-104.727273 104.727273-104.727273 104.727273 46.545455 104.727272 104.727273-46.545455 104.727273-104.727272 104.727272z" fill="#6591FD" p-id="2891"></path><path d="M688.872727 616.727273c-27.927273 0-51.2-23.272727-51.2-51.2 0-27.927273 23.272727-51.2 51.2-51.2 27.927273 0 51.2 23.272727 51.2 51.2 2.327273 25.6-20.945455 51.2-51.2 51.2z m0-79.127273c-16.290909 0-25.6 9.309091-25.6 25.6s9.309091 25.6 25.6 25.6 25.6-9.309091 25.6-25.6c0-16.290909-9.309091-25.6-25.6-25.6z" fill="#6591FD" p-id="2892"></path><path d="M637.672727 353.745455c0-58.181818-46.545455-104.727273-104.727272-104.727273s-104.727273 46.545455-104.727273 104.727273 46.545455 104.727273 104.727273 104.727272 104.727273-46.545455 104.727272-104.727272z m-104.727272 53.527272c-27.927273 0-51.2-23.272727-51.2-51.2 0-27.927273 23.272727-51.2 51.2-51.2 27.927273 0 51.2 23.272727 51.2 51.2 0 27.927273-23.272727 51.2-51.2 51.2zM784.290909 558.545455l-18.618182-4.654546c0-4.654545-2.327273-9.309091-2.327272-16.290909l13.963636-9.309091c4.654545-4.654545 4.654545-13.963636 2.327273-18.618182l-16.290909-20.945454c-4.654545-4.654545-13.963636-4.654545-18.618182-2.327273l-13.963637 9.309091-16.290909-6.981818v-18.618182c0-6.981818-4.654545-13.963636-13.963636-13.963636H674.909091c-6.981818 0-13.963636 4.654545-13.963636 13.963636v18.618182l-16.29091 6.981818-13.963636-9.309091c-4.654545-4.654545-13.963636-2.327273-18.618182 2.327273l-16.290909 20.945454c-4.654545 4.654545-2.327273 13.963636 2.327273 18.618182l13.963636 9.309091c-2.327273 4.654545-2.327273 9.309091-2.327272 16.290909l-13.963637 4.654546c-6.981818 2.327273-9.309091 6.981818-9.309091 16.290909l4.654546 25.6c2.327273 6.981818 6.981818 9.309091 16.290909 9.309091l18.618182-4.654546c2.327273 4.654545 4.654545 9.309091 9.309091 13.963636l-6.981819 16.29091c-2.327273 4.654545 0 13.963636 4.654546 18.618181l23.272727 9.309091c4.654545 2.327273 13.963636 0 18.618182-4.654545l6.981818-16.290909h16.290909l6.981818 16.290909c2.327273 4.654545 9.309091 9.309091 18.618182 4.654545l23.272727-9.309091c4.654545-2.327273 9.309091-9.309091 4.654546-18.618181l-6.981818-16.29091c4.654545-4.654545 6.981818-6.981818 9.309091-13.963636l18.618181 4.654546c6.981818 2.327273 13.963636-2.327273 16.29091-9.309091l4.654545-25.6c2.327273-9.309091-2.327273-13.963636-9.309091-16.290909z m-95.418182 58.181818c-27.927273 0-51.2-23.272727-51.2-51.2 0-27.927273 23.272727-51.2 51.2-51.2 27.927273 0 51.2 23.272727 51.2 51.2 2.327273 25.6-20.945455 51.2-51.2 51.2z" fill="#54B9F7" p-id="2893"></path><path d="M353.745455 125.672727c-6.981818-6.981818-16.290909-6.981818-23.272728 0L290.909091 162.909091c-6.981818 6.981818-6.981818 16.290909 0 23.272727 6.981818 6.981818 16.290909 6.981818 23.272727 0l39.563637-37.236363c6.981818-6.981818 6.981818-16.290909 0-23.272728z" fill="#FCFCFF" p-id="2894"></path><path d="M265.309091 209.454545m-16.290909 0a16.290909 16.290909 0 1 0 32.581818 0 16.290909 16.290909 0 1 0-32.581818 0Z" fill="#FCFCFF" p-id="2895"></path></svg>