<?xml version="1.0" standalone="no"?><!DOCTYPE svg PUBLIC "-//W3C//DTD SVG 1.1//EN" "http://www.w3.org/Graphics/SVG/1.1/DTD/svg11.dtd"><svg t="1609759234545" class="icon" viewBox="0 0 1024 1024" version="1.1" xmlns="http://www.w3.org/2000/svg" p-id="9267" xmlns:xlink="http://www.w3.org/1999/xlink" width="48" height="48"><defs><style type="text/css"></style></defs><path d="M522.31027814 3.09045728c-276.58057573 0-500.7849385 224.20436275-500.78493849 500.78493849 0 247.46140447 179.47248457 452.98943481 415.35691958 493.52355689v-86.44431776C249.45613152 872.76241884 108.42625546 707.00260421 108.42625546 508.29408642c0-226.95867991 183.97954901-410.93822894 410.93822893-410.93822895 196.61700422 0 360.9922958 138.08408231 401.40858614 322.56441627h95.31115698C976.15399314 183.31411927 770.28719651 3.09045728 522.31027814 3.09045728z" fill="#FFD349" p-id="9268"></path><path d="M1008.76393001 492.84339815L637.19623462 939.80868473c-8.05674593 9.67693249-22.52059326 10.75214722-31.91767533 2.37136397l-36.49838464-32.60993687c-8.60171776-7.68852171-9.36762415-20.87094876-1.73801833-29.51685343l383.67490773-433.72394364c11.66534327-13.15296911 31.59363803-14.89098742 45.36522385-3.94736364l8.14511973 6.4660173c13.58010921 10.79633411 15.62743587 30.65098403 4.53652238 43.99542973zM600.37381268 981.09398422l-81.00932829 16.20186564 10.31027814-82.48222515" fill="#FFD349" p-id="9269"></path><path d="M397.11404353 390.46233617v34.89292704c-0.97211193-7.05517603-1.47289687-14.27237074-1.4728969-21.63685514 0-3.4907656 0.11783174-6.95207326 0.3387663-10.38392299 0.05891587-0.95738297 0.13256073-1.91476594 0.22093454-2.87214891h0.91319606z" fill="#86E0EA" p-id="9270"></path><path d="M397.11404353 484.72773635h21.3717337c5.12568113 8.15984871 11.85681987 41.84500031 18.396482 48.60559698-69.09359253 15.87782834-126.93425294 24.99506002-159.33798426 70.69905013H255.71594325v-84.19078553c0-19.38332291 15.73053867-35.11386157 35.11386157-35.11386158H355.87293093v-92.3211763c-22.40276151-8.58698881-38.29531883-30.28275981-38.29531881-55.70495991v-39.76821572c0-32.94870317 26.70362039-59.65232355 59.65232355-59.65232355 16.46698708 0 31.38743247 6.67222286 42.18376659 17.46855697 10.79633411 10.79633411 17.46855697 25.71677949 17.46855697 42.18376658v2.40082192c-22.60896707 23.05083614-36.77823504 55.13053013-39.7682157 91.12812983v94.26540018z" fill="#FFD349" p-id="9271"></path><path d="M648.97940963 403.71840807c0 7.36448439-0.50078495 14.58167909-1.47289687 21.63685514V390.46233617h0.91319607c0.08837381 0.95738297 0.16201865 1.91476594 0.22093455 2.87214891 0.22093454 3.43184972 0.33876629 6.89315739 0.33876625 10.38392299z" fill="#86E0EA" p-id="9272"></path><path d="M777.12143803 519.84159793V604.03238346h-29.19281612c-31.38743247-44.26055118-88.75676587-43.84814006-154.91929362-60.38877199 3.44657869-3.50549457 7.43812923-16.09876288 11.25293214-28.88350777 3.80007395-12.7847449 7.42340027-25.76096639 10.08934362-30.03236735H635.72333775v-94.26540018c-2.98998066-35.9975997-17.15924862-68.0772937-39.76821571-91.12812983v-2.40082192c0-16.46698708 6.67222286-31.38743247 17.46855698-42.18376658 10.79633411-10.79633411 25.71677949-17.46855697 42.18376658-17.46855697 32.94870317 0 59.65232355 26.70362039 59.65232355 59.65232355v39.76821572c0 25.42220012-15.89255731 47.11797113-38.29531882 55.70495991V484.72773635h65.04312613c19.38332291 0 35.11386157 15.73053867 35.11386157 35.11386158z" fill="#FFD349" p-id="9273"></path><path d="M702.4013794 649.04411205L618.74083673 748.3762775H292.53836519c0-48.81180252 19.78100507-92.99870887 51.77232526-124.97530008C376.28728166 591.40965722 420.47418801 571.62865216 469.28599055 571.62865216h13.25607189v-72.00992836c-23.52216314-16.73210852-39.7682157-52.39094193-39.7682157-93.69097042 0-57.35460443 31.32851659-103.8392299 69.96260171-103.83922988s69.9626017 46.48462546 69.96260168 103.83922988c0 42.16903762-16.92358514 78.44648772-41.24111257 94.70726926V571.62865216h14.72896878c60.78645415 0 114.3999005 30.69517093 146.21447306 77.41545989z" fill="#FFD349" p-id="9274"></path></svg>