<?xml version="1.0" standalone="no"?><!DOCTYPE svg PUBLIC "-//W3C//DTD SVG 1.1//EN" "http://www.w3.org/Graphics/SVG/1.1/DTD/svg11.dtd"><svg t="1605058601972" class="icon" viewBox="0 0 1024 1024" version="1.1" xmlns="http://www.w3.org/2000/svg" p-id="846" width="16" height="16" xmlns:xlink="http://www.w3.org/1999/xlink"><defs><style type="text/css"></style></defs><path d="M958.97979259 755.93955555h-126.21748148V629.72207408c0-21.35988148-17.47626667-38.83614815-38.83614814-38.83614816s-38.83614815 17.47626667-38.83614815 38.83614816v126.21748147h-126.21748149c-21.35988148 0-38.83614815 17.47626667-38.83614815 38.83614815s17.47626667 38.83614815 38.83614815 38.83614815h126.21748149v126.21748148c0 21.35988148 17.47626667 38.83614815 38.83614815 38.83614815s38.83614815-17.47626667 38.83614814-38.83614815V833.61185185h126.21748148c21.35988148 0 38.83614815-17.47626667 38.83614816-38.83614815s-17.47626667-38.83614815-38.83614816-38.83614815z" fill="#007bff" p-id="847" data-spm-anchor-id="a313x.7781069.0.i1" class="selected"></path><path d="M502.77641482 27.88314075c-148.4269037 4.85451852-268.94032592 126.94565925-271.9744 275.49392592-2.06317037 98.18263703 46.23928889 185.19988148 120.75614815 237.14322963-176.34038518 61.89511111-306.19875555 222.57967408-322.94684445 415.78951111-1.94180741 22.81623703 15.77718518 42.47703703 38.71478518 42.47703704 20.38897778 0 36.89434075-15.65582222 38.71478519-35.92343704 18.20444445-206.92385185 191.51075555-369.91431111 402.56094814-371.85611852 155.95140741-1.33499259 285.32432592-125.85339259 285.20296297-281.8048 0-158.74275555-131.19336297-286.53795555-291.02838518-281.31934814z m9.58767407 485.33048888c-112.3821037 0-203.88977778-91.50767408-203.88977778-203.88977778s91.50767408-203.88977778 203.88977778-203.88977777 203.88977778 91.50767408 203.88977778 203.88977777-91.50767408 203.88977778-203.88977778 203.88977778z" fill="#007bff" p-id="848" data-spm-anchor-id="a313x.7781069.0.i0" class="selected"></path></svg>