<?xml version="1.0" standalone="no"?><!DOCTYPE svg PUBLIC "-//W3C//DTD SVG 1.1//EN" "http://www.w3.org/Graphics/SVG/1.1/DTD/svg11.dtd"><svg t="1605057000313" class="icon" viewBox="0 0 1024 1024" version="1.1" xmlns="http://www.w3.org/2000/svg" p-id="755" width="20" height="20" xmlns:xlink="http://www.w3.org/1999/xlink"><defs><style type="text/css"></style></defs><path d="M677.05362963 242.11531852L154.70743704 242.11531852l155.34459259-155.3445926c15.53445925-15.53445925 15.53445925-38.83614815 0-54.3706074-15.53445925-15.53445925-38.83614815-15.53445925-54.37060741 0L34.31537778 251.82435556c-7.76722963 7.76722963-11.65084445 17.47626667-11.65084445 27.1853037s3.88361482 19.41807407 11.65084445 27.18530371l219.42423704 219.42423703c15.53445925 15.53445925 38.83614815 15.53445925 54.3706074 0 15.53445925-15.53445925 15.53445925-38.83614815 0-54.37060741L156.64924445 319.78761481 677.05362963 319.78761481c145.63555555 0 262.144 116.50844445 262.144 262.14400001s-116.50844445 262.144-262.144 262.144L278.98311111 844.07561481c-21.35988148 0-38.83614815 17.47626667-38.83614814 38.83614816s17.47626667 38.83614815 38.83614814 38.83614815l398.07051852 0c188.35531852 0 339.8162963-151.46097778 339.81629629-339.8162963s-151.46097778-339.8162963-339.81629629-339.8162963z" fill="#007bff" p-id="756"></path></svg>