<?xml version="1.0" standalone="no"?><!DOCTYPE svg PUBLIC "-//W3C//DTD SVG 1.1//EN" "http://www.w3.org/Graphics/SVG/1.1/DTD/svg11.dtd"><svg t="1605058694687" class="icon" viewBox="0 0 1024 1024" version="1.1" xmlns="http://www.w3.org/2000/svg" p-id="846" xmlns:xlink="http://www.w3.org/1999/xlink" width="16" height="16"><defs><style type="text/css"></style></defs><path d="M979.9247648 848.49095147H702.7074848a9.90321813 9.90321813 0 0 0-9.8304 9.90321706v59.41930667c0 5.46133333 4.4418848 9.90321813 9.90321706 9.90321813h277.14446294a9.90321813 9.90321813 0 0 0 9.8304-9.90321813v-59.41930667a9.90321813 9.90321813 0 0 0-9.8304-9.90321706z m-641.52462294-338.45703147a316.32042667 316.32042667 0 0 1 3.6408896-90.22122667 9.9760352 9.9760352 0 0 0-5.6069696-10.92266666 156.26695147 156.26695147 0 0 1-45.65674666-31.02037334 157.72330667 157.72330667 0 0 1-47.84128-117.9648 157.50485333 157.50485333 0 0 1 44.85575146-105.94986666c30.58346667-31.3116448 71.65269333-48.3510048 115.34336-47.84128a158.0873952 158.0873952 0 0 1 131.65454187 72.74496c2.4758048 3.7865248 7.28177813 5.46133333 11.5052096 3.93216 21.7725152-7.50023147 44.78293333-12.81592853 68.4487104-15.29173334a9.90321813 9.90321813 0 0 0 7.7186848-14.41792A247.8717152 247.8717152 0 0 0 405.1740448 17.13038187C268.05816853 15.01866667 153.73425813 127.52213333 153.73425813 264.56519147a246.85226667 246.85226667 0 0 0 91.7504 192.38456853c-39.3216 18.2044448-75.58485333 43.32657813-107.04213333 74.71104a368.02104853 368.02104853 0 0 0-108.57130667 252.38641813c-0.1456352 5.60696853 4.36906667 10.19448853 9.90321707 10.19448854h69.39534293a9.8304 9.8304 0 0 0 9.90321707-9.53912854 279.62026667 279.62026667 0 0 1 82.50254293-189.9087648c36.40888853-36.40888853 80.90055147-61.60384 129.61564373-73.9100448a10.19448853 10.19448853 0 0 0 7.28177814-10.84984853z m557.34727147-32.69518187a247.5804448 247.5804448 0 0 0-243.57546667-247.4348096 248.81834667 248.81834667 0 0 0-251.22133333 247.4348096c0 77.69656853 35.82634667 147.01909333 91.7504 192.38456854a372.24448 372.24448 0 0 0-106.89649813 74.78385813 367.87541333 367.87541333 0 0 0-108.64412374 252.24078187c-0.07281813 5.53415147 4.36906667 10.19448853 9.90321707 10.19448853h69.3225248a9.8304 9.8304 0 0 0 9.90321813-9.61194667 279.62026667 279.62026667 0 0 1 82.50254187-189.90876373 280.12999147 280.12999147 0 0 1 199.52071147-82.64817813 247.43480853 247.43480853 0 0 0 247.43480853-247.43480854z m-135.44106667 111.99374187a157.21358187 157.21358187 0 0 1-111.99374186 46.3849248 157.21358187 157.21358187 0 0 1-111.9209248-46.3849248A158.59712 158.59712 0 0 1 646.71061333 319.03288853a159.25248 159.25248 0 0 1 112.5762848 45.29265814 157.86894187 157.86894187 0 0 1 1.01944853 225.00693333z" fill="#007bff" p-id="847" data-spm-anchor-id="a313x.7781069.0.i1" class="selected"></path></svg>